<svg xmlns="http://www.w3.org/2000/svg" viewBox="0 0 1200 630" fill="none">
  <defs>
    <linearGradient id="bg" x1="0%" y1="0%" x2="100%" y2="100%">
      <stop offset="0%" stop-color="#05070a"/>
      <stop offset="100%" stop-color="#0d1117"/>
    </linearGradient>
    <linearGradient id="accent" x1="0%" y1="0%" x2="100%" y2="0%">
      <stop offset="0%" stop-color="#00d2ff"/>
      <stop offset="50%" stop-color="#3a7bd5"/>
      <stop offset="100%" stop-color="#00ff80"/>
    </linearGradient>
    <radialGradient id="glow1" cx="25%" cy="50%" r="40%">
      <stop offset="0%" stop-color="#00d2ff" stop-opacity="0.12"/>
      <stop offset="100%" stop-color="#00d2ff" stop-opacity="0"/>
    </radialGradient>
    <radialGradient id="glow2" cx="75%" cy="50%" r="40%">
      <stop offset="0%" stop-color="#00ff80" stop-opacity="0.1"/>
      <stop offset="100%" stop-color="#00ff80" stop-opacity="0"/>
    </radialGradient>
    <radialGradient id="glow3" cx="50%" cy="20%" r="30%">
      <stop offset="0%" stop-color="#3a7bd5" stop-opacity="0.12"/>
      <stop offset="100%" stop-color="#3a7bd5" stop-opacity="0"/>
    </radialGradient>
  </defs>

  <!-- Background -->
  <rect width="1200" height="630" fill="url(#bg)"/>
  <rect width="1200" height="630" fill="url(#glow1)"/>
  <rect width="1200" height="630" fill="url(#glow2)"/>
  <rect width="1200" height="630" fill="url(#glow3)"/>

  <!-- Subtle grid -->
  <g opacity="0.03" stroke="#00d2ff" stroke-width="1">
    <line x1="0" y1="105" x2="1200" y2="105"/><line x1="0" y1="210" x2="1200" y2="210"/>
    <line x1="0" y1="315" x2="1200" y2="315"/><line x1="0" y1="420" x2="1200" y2="420"/>
    <line x1="0" y1="525" x2="1200" y2="525"/>
    <line x1="150" y1="0" x2="150" y2="630"/><line x1="300" y1="0" x2="300" y2="630"/>
    <line x1="450" y1="0" x2="450" y2="630"/><line x1="600" y1="0" x2="600" y2="630"/>
    <line x1="750" y1="0" x2="750" y2="630"/><line x1="900" y1="0" x2="900" y2="630"/>
    <line x1="1050" y1="0" x2="1050" y2="630"/>
  </g>

  <!-- Border -->
  <rect x="16" y="16" width="1168" height="598" rx="16" fill="none" stroke="url(#accent)" stroke-width="1.5" opacity="0.5"/>

  <!-- Left: Logo icon (large) -->
  <g transform="translate(80, 215) scale(3.2)">
    <path d="M28 2 L50 10 L50 30 C50 42 40 52 28 56 C16 52 6 42 6 30 L6 10 Z"
          fill="url(#accent)" opacity="0.15" stroke="url(#accent)" stroke-width="1.5"/>
    <path d="M28 8 L44 14 L44 30 C44 39 37 47 28 50 C19 47 12 39 12 30 L12 14 Z"
          fill="none" stroke="url(#accent)" stroke-width="0.75" opacity="0.5"/>
    <rect x="21" y="26" width="14" height="9" rx="1.5" fill="url(#accent)" opacity="0.9"/>
    <polygon points="28,18 38,23 28,28 18,23" fill="url(#accent)"/>
    <line x1="38" y1="23" x2="38" y2="30" stroke="url(#accent)" stroke-width="1.5" stroke-linecap="round"/>
    <circle cx="38" cy="31" r="1.5" fill="#00ff80"/>
  </g>

  <!-- Center content -->
  <text x="600" y="220" text-anchor="middle" font-family="Inter, system-ui, sans-serif" font-size="72" font-weight="800" letter-spacing="-2" fill="white">LearnVault</text>

  <!-- Gradient underline -->
  <rect x="340" y="238" width="520" height="3" rx="2" fill="url(#accent)" opacity="0.7"/>

  <!-- Tagline -->
  <text x="600" y="310" text-anchor="middle" font-family="Inter, system-ui, sans-serif" font-size="26" font-weight="400" fill="white" opacity="0.7">Learning is the proof of work.</text>
  <text x="600" y="348" text-anchor="middle" font-family="Inter, system-ui, sans-serif" font-size="26" font-weight="400" fill="white" opacity="0.7">The community is the bank.</text>

  <!-- Pill badges -->
  <rect x="310" y="400" width="160" height="40" rx="20" fill="#00d2ff" fill-opacity="0.1" stroke="#00d2ff" stroke-width="1" stroke-opacity="0.5"/>
  <text x="390" y="425" text-anchor="middle" font-family="Inter, system-ui, sans-serif" font-size="14" font-weight="600" fill="#00d2ff" letter-spacing="1">LEARN</text>

  <rect x="490" y="400" width="160" height="40" rx="20" fill="#3a7bd5" fill-opacity="0.1" stroke="#3a7bd5" stroke-width="1" stroke-opacity="0.5"/>
  <text x="570" y="425" text-anchor="middle" font-family="Inter, system-ui, sans-serif" font-size="14" font-weight="600" fill="#3a7bd5" letter-spacing="1">EARN</text>

  <rect x="670" y="400" width="220" height="40" rx="20" fill="#00ff80" fill-opacity="0.1" stroke="#00ff80" stroke-width="1" stroke-opacity="0.5"/>
  <text x="780" y="425" text-anchor="middle" font-family="Inter, system-ui, sans-serif" font-size="14" font-weight="600" fill="#00ff80" letter-spacing="1">GET FUNDED</text>

  <!-- Bottom: Stellar powered -->
  <text x="600" y="560" text-anchor="middle" font-family="Inter, system-ui, sans-serif" font-size="13" font-weight="400" fill="white" opacity="0.25" letter-spacing="3">POWERED BY STELLAR · BUILT FOR AFRICAN LEARNERS</text>

  <!-- URL -->
  <text x="600" y="595" text-anchor="middle" font-family="Inter, system-ui, sans-serif" font-size="14" font-weight="500" fill="white" opacity="0.35">learnvault.xyz</text>
</svg>
